# xmcd
#
# Track frame offsets:
# 150
# 12873
# 22193
# 30187
# 41782
# 58355
# 66615
#
# Disc length: 1039 seconds
#
# Revision: 0
# Processed by: cddbd v1.4PL0 Copyright (c) Steve Scherf et al.
# Submitted via: Audion 3.0.2 (http://www.panic.com/audion/)
#
DISCID=60040d07
DTITLE=the kodan armada - self titled
DYEAR=1900
DGENRE=
TTITLE0=track one
TTITLE1=track two
TTITLE2=track three
TTITLE3=track four
TTITLE4=track five
TTITLE5=track six
TTITLE6=track seven
EXTD=
EXTT0=
EXTT1=
EXTT2=
EXTT3=
EXTT4=
EXTT5=
EXTT6=
PLAYORDER=
